{
  "accessors": [
    {
      "bufferView": 2,
      "componentType": 5126,
      "count": 48152,
      "max": [
        5.0087223052978516,
        2.2713539600372314,
        0.14135007560253143
      ],
      "min": [
        -4.146275520324707,
        -2.2713544368743896,
        -1.4801089763641357
      ],
      "type": "VEC3"
    },
    {
      "bufferView": 2,
      "byteOffset": 577824,
      "componentType": 5126,
      "count": 48152,
      "max": [
        1,
        1,
        1
      ],
      "min": [
        -1,
        -1,
        -1
      ],
      "type": "VEC3"
    },
    {
      "bufferView": 3,
      "componentType": 5126,
      "count": 48152,
      "max": [
        1,
        1,
        1,
        1
      ],
      "min": [
        -1,
        -1,
        -1,
        -1
      ],
      "type": "VEC4"
    },
    {
      "bufferView": 1,
      "componentType": 5126,
      "count": 48152,
      "max": [
        0.98228132724761963,
        0.85508298873901367
      ],
      "min": [
        0.92897289991378784,
        0.40609773993492126
      ],
      "type": "VEC2"
    },
    {
      "bufferView": 0,
      "componentType": 5125,
      "count": 109056,
      "max": [
        48151
      ],
      "min": [
        0
      ],
      "type": "SCALAR"
    },
    {
      "bufferView": 2,
      "byteOffset": 1155648,
      "componentType": 5126,
      "count": 15458,
      "max": [
        4.823021411895752,
        2.301950216293335,
        -0.06013469398021698
      ],
      "min": [
        -3.9702558517456055,
        -2.3019497394561768,
        -1.4257698059082031
      ],
      "type": "VEC3"
    },
    {
      "bufferView": 2,
      "byteOffset": 1341144,
      "componentType": 5126,
      "count": 15458,
      "max": [
        0.99996310472488403,
        1,
        1
      ],
      "min": [
        -1,
        -1,
        -1
      ],
      "type": "VEC3"
    },
    {
      "bufferView": 3,
      "byteOffset": 770432,
      "componentType": 5126,
      "count": 15458,
      "max": [
        1,
        1,
        0.9986841082572937,
        1
      ],
      "min": [
        -0.99999833106994629,
        -1,
        -0.99916350841522217,
        -1
      ],
      "type": "VEC4"
    },
    {
      "bufferView": 1,
      "byteOffset": 385216,
      "componentType": 5126,
      "count": 15458,
      "max": [
        0.99628156423568726,
        0.99650710821151733
      ],
      "min": [
        0.00083690590690821409,
        0.063264258205890656
      ],
      "type": "VEC2"
    },
    {
      "bufferView": 0,
      "byteOffset": 436224,
      "componentType": 5125,
      "count": 41700,
      "max": [
        15457
      ],
      "min": [
        0
      ],
      "type": "SCALAR"
    },
    {
      "bufferView": 2,
      "byteOffset": 1526640,
      "componentType": 5126,
      "count": 6565,
      "max": [
        4.8862333297729492,
        2.3801271915435791,
        2.35396409034729
      ],
      "min": [
        -4.9686675071716309,
        -2.3801271915435791,
        -0.95697498321533203
      ],
      "type": "VEC3"
    },
    {
      "bufferView": 2,
      "byteOffset": 1605420,
      "componentType": 5126,
      "count": 6565,
      "max": [
        1,
        1,
        1
      ],
      "min": [
        -1,
        -1,
        -1
      ],
      "type": "VEC3"
    },
    {
      "bufferView": 3,
      "byteOffset": 1017760,
      "componentType": 5126,
      "count": 6565,
      "max": [
        1,
        1,
        1,
        1
      ],
      "min": [
        -1,
        -1,
        -1,
        -1
      ],
      "type": "VEC4"
    },
    {
      "bufferView": 1,
      "byteOffset": 508880,
      "componentType": 5126,
      "count": 6565,
      "max": [
        0.99677562713623047,
        0.99916303157806396
      ],
      "min": [
        0.00083690590690821409,
        0.00083690590690821409
      ],
      "type": "VEC2"
    },
    {
      "bufferView": 0,
      "byteOffset": 603024,
      "componentType": 5125,
      "count": 18582,
      "max": [
        6564
      ],
      "min": [
        0
      ],
      "type": "SCALAR"
    }
  ],
  "asset": {
    "extras": {
      "author": "EduardCortesRomero (https://sketchfab.com/EduardCortesRomero)",
      "license": "CC-BY-4.0 (http://creativecommons.org/licenses/by/4.0/)",
      "source": "https://sketchfab.com/3d-models/t-34-6289f74d5cae458eb6af1d930588b1fd",
      "title": "T-34"
    },
    "generator": "Sketchfab-4.69.0",
    "version": "2.0"
  },
  "bufferViews": [
    {
      "buffer": 0,
      "byteLength": 677352,
      "byteOffset": 0,
      "name": "floatBufferViews",
      "target": 34963
    },
    {
      "buffer": 0,
      "byteLength": 561400,
      "byteOffset": 677352,
      "byteStride": 8,
      "name": "floatBufferViews",
      "target": 34962
    },
    {
      "buffer": 0,
      "byteLength": 1684200,
      "byteOffset": 1238752,
      "byteStride": 12,
      "name": "floatBufferViews",
      "target": 34962
    },
    {
      "buffer": 0,
      "byteLength": 1122800,
      "byteOffset": 2922952,
      "byteStride": 16,
      "name": "floatBufferViews",
      "target": 34962
    }
  ],
  "buffers": [
    {
      "byteLength": 4045752,
      "uri": "scene.bin"
    }
  ],
  "images": [
    {
      "uri": "T-34_metallicRoughness.png"
    },
    {
      "uri": "T-34_baseColor.png"
    },
    {
      "uri": "T-34_normal.png"
    }
  ],
  "materials": [
    {
      "doubleSided": true,
      "name": "T-34",
      "normalTexture": {
        "index": 2,
        "scale": 1,
        "texCoord": 0
      },
      "occlusionTexture": {
        "index": 0,
        "strength": 1,
        "texCoord": 0
      },
      "pbrMetallicRoughness": {
        "baseColorFactor": [
          1,
          1,
          1,
          1
        ],
        "baseColorTexture": {
          "index": 1,
          "texCoord": 0
        },
        "metallicFactor": 1,
        "metallicRoughnessTexture": {
          "index": 0,
          "texCoord": 0
        },
        "roughnessFactor": 1
      }
    }
  ],
  "meshes": [
    {
      "name": "Cube.022_T-34_0",
      "primitives": [
        {
          "attributes": {
            "NORMAL": 1,
            "POSITION": 0,
            "TANGENT": 2,
            "TEXCOORD_0": 3
          },
          "indices": 4,
          "material": 0,
          "mode": 4
        }
      ]
    },
    {
      "name": "Cube.016_T-34_0",
      "primitives": [
        {
          "attributes": {
            "NORMAL": 6,
            "POSITION": 5,
            "TANGENT": 7,
            "TEXCOORD_0": 8
          },
          "indices": 9,
          "material": 0,
          "mode": 4
        }
      ]
    },
    {
      "name": "Cube.015_T-34_0",
      "primitives": [
        {
          "attributes": {
            "NORMAL": 11,
            "POSITION": 10,
            "TANGENT": 12,
            "TEXCOORD_0": 13
          },
          "indices": 14,
          "material": 0,
          "mode": 4
        }
      ]
    }
  ],
  "nodes": [
    {
      "children": [
        1
      ],
      "name": "RootNode (gltf orientation matrix)",
      "rotation": [
        -0.70710678118654746,
        -0,
        -0,
        0.70710678118654757
      ]
    },
    {
      "children": [
        2
      ],
      "name": "RootNode (model correction matrix)"
    },
    {
      "children": [
        3
      ],
      "matrix": [
        1,
        0,
        0,
        0,
        0,
        0,
        1,
        0,
        0,
        -1,
        0,
        0,
        0,
        0,
        0,
        1
      ],
      "name": "3e1fe464ff6042b8b33f9c1ff486e731.fbx"
    },
    {
      "children": [
        4,
        6,
        8
      ],
      "name": "RootNode"
    },
    {
      "children": [
        5
      ],
      "matrix": [
        100,
        0,
        0,
        0,
        0,
        -1.6292067939183141e-05,
        -99.999999999998678,
        0,
        0,
        99.999999999998678,
        -1.6292067939183141e-05,
        0,
        0,
        0,
        0,
        1
      ],
      "name": "Cube.022"
    },
    {
      "mesh": 0,
      "name": "Cube.022_T-34_0"
    },
    {
      "children": [
        7
      ],
      "matrix": [
        100,
        0,
        0,
        0,
        0,
        -1.6292067939183141e-05,
        -99.999999999998678,
        0,
        0,
        99.999999999998678,
        -1.6292067939183141e-05,
        0,
        0,
        0,
        0,
        1
      ],
      "name": "Cube.016"
    },
    {
      "mesh": 1,
      "name": "Cube.016_T-34_0"
    },
    {
      "children": [
        9
      ],
      "matrix": [
        100,
        0,
        0,
        0,
        0,
        -1.6292067939183141e-05,
        -99.999999999998678,
        0,
        0,
        99.999999999998678,
        -1.6292067939183141e-05,
        0,
        0,
        0,
        0,
        1
      ],
      "name": "Cube.015"
    },
    {
      "mesh": 2,
      "name": "Cube.015_T-34_0"
    }
  ],
  "samplers": [
    {
      "magFilter": 9729,
      "minFilter": 9987,
      "wrapS": 10497,
      "wrapT": 10497
    }
  ],
  "scene": 0,
  "scenes": [
    {
      "name": "OSG_Scene",
      "nodes": [
        0
      ]
    }
  ],
  "textures": [
    {
      "sampler": 0,
      "source": 0
    },
    {
      "sampler": 0,
      "source": 1
    },
    {
      "sampler": 0,
      "source": 2
    }
  ]
}

